<svg width="28" height="28" viewBox="0 0 16 17" fill="none" xmlns="http://www.w3.org/2000/svg">
<path d="M2 6.5V13.4333C2 13.8067 2 13.9933 2.07267 14.136C2.13658 14.2614 2.23856 14.3634 2.364 14.4273C2.50667 14.5 2.69333 14.5 3.06533 14.5H10M4.66667 9.7V4.63333C4.66667 3.88667 4.66667 3.51333 4.812 3.228C4.94 2.97667 5.14333 2.77333 5.39467 2.64533C5.68 2.5 6.05333 2.5 6.8 2.5H11.8667C12.6133 2.5 12.9867 2.5 13.272 2.64533C13.5229 2.77316 13.7268 2.97713 13.8547 3.228C14 3.51333 14 3.88667 14 4.63333V9.7C14 10.4467 14 10.82 13.8547 11.1053C13.7268 11.3562 13.5228 11.5601 13.272 11.688C12.9867 11.8333 12.6147 11.8333 11.8693 11.8333H6.798C6.05267 11.8333 5.67933 11.8333 5.39467 11.688C5.1438 11.5602 4.93983 11.3562 4.812 11.1053C4.66667 10.82 4.66667 10.4467 4.66667 9.7Z" stroke="#9B9B9B" stroke-linecap="round" stroke-linejoin="round"/>
</svg>
