<svg width="20" height="20" viewBox="0 0 20 20" fill="none" xmlns="http://www.w3.org/2000/svg">
<path d="M1.66797 6.66667L2.75464 7.53583C3.13321 7.83863 3.57326 8.0552 4.04413 8.17046C4.515 8.28573 5.00534 8.2969 5.48096 8.2032C5.95659 8.1095 6.40605 7.91319 6.79802 7.62796C7.18999 7.34272 7.51503 6.97542 7.75047 6.55167L10.0013 2.5L12.2521 6.55167C12.4877 6.97535 12.8127 7.34258 13.2047 7.62773C13.5967 7.91288 14.0462 8.10911 14.5218 8.20273C14.9975 8.29634 15.4878 8.2851 15.9586 8.16978C16.4294 8.05445 16.8695 7.83783 17.248 7.535L18.3346 6.66667L16.873 13.975C16.8092 14.2939 16.6734 14.5941 16.4759 14.8526C16.2785 15.1111 16.0247 15.3211 15.7338 15.4667C13.9539 16.3567 11.9913 16.82 10.0013 16.82C8.01132 16.82 6.04867 16.3567 4.2688 15.4667C3.97791 15.3211 3.72408 15.1111 3.52666 14.8526C3.32924 14.5941 3.19345 14.2939 3.12964 13.975L1.66797 6.66667Z" stroke="#1FD753" stroke-width="1.3" stroke-linecap="round" stroke-linejoin="round"/>
<path d="M6.66797 12.5C8.8313 13.6108 11.1713 13.6108 13.3346 12.5" stroke="currentColor" stroke-width="1.3" stroke-linecap="round" stroke-linejoin="round"/>
</svg>
