<svg width="20" height="20" viewBox="0 0 20 20" fill="none" xmlns="http://www.w3.org/2000/svg">
<g clip-path="url(#clip0_1599_18524)">
<path d="M1.42969 5.00007H18.5725M6.42969 5.00007V4.28578C6.42969 3.33858 6.80596 2.43018 7.47574 1.7604C8.14551 1.09063 9.05392 0.714355 10.0011 0.714355C10.9483 0.714355 11.8567 1.09063 12.5265 1.7604C13.1963 2.43018 13.5725 3.33858 13.5725 4.28578V5.00007M7.85826 7.85721V15.7144M12.144 7.85721V15.7144M3.57254 5.00007H16.4297V17.8572C16.4297 18.2361 16.2792 18.5995 16.0113 18.8674C15.7434 19.1353 15.38 19.2858 15.0011 19.2858H5.00112C4.62224 19.2858 4.25887 19.1353 3.99096 18.8674C3.72305 18.5995 3.57254 18.2361 3.57254 17.8572V5.00007Z" stroke="#F63E16" stroke-width="1.3" stroke-linecap="round" stroke-linejoin="round"/>
</g>
<defs>
<clipPath id="clip0_1599_18524">
<rect width="20" height="20" fill="white"/>
</clipPath>
</defs>
</svg>
