<svg width="36" height="36" viewBox="0 0 36 36" fill="none" xmlns="http://www.w3.org/2000/svg">
<path d="M0 18C0 8.05888 8.05888 0 18 0C27.9411 0 36 8.05888 36 18C36 27.9411 27.9411 36 18 36C8.05888 36 0 27.9411 0 18Z" fill="white" fill-opacity="0.1"/>
<g clip-path="url(#clip0_1599_17837)">
<path d="M9.42969 13.0001H26.5725M14.4297 13.0001V12.2858C14.4297 11.3386 14.806 10.4302 15.4757 9.7604C16.1455 9.09063 17.0539 8.71436 18.0011 8.71436C18.9483 8.71436 19.8567 9.09063 20.5265 9.7604C21.1963 10.4302 21.5725 11.3386 21.5725 12.2858V13.0001M15.8583 15.8572V23.7144M20.144 15.8572V23.7144M11.5725 13.0001H24.4297V25.8572C24.4297 26.2361 24.2792 26.5995 24.0113 26.8674C23.7434 27.1353 23.38 27.2858 23.0011 27.2858H13.0011C12.6222 27.2858 12.2589 27.1353 11.991 26.8674C11.7231 26.5995 11.5725 26.2361 11.5725 25.8572V13.0001Z" stroke="white" stroke-width="2" stroke-linecap="round" stroke-linejoin="round"/>
</g>
<defs>
<clipPath id="clip0_1599_17837">
<rect width="20" height="20" fill="white" transform="translate(8 8)"/>
</clipPath>
</defs>
</svg>
