<svg width="28" height="28" viewBox="0 0 28 28" fill="none" xmlns="http://www.w3.org/2000/svg">
<path d="M2 7H26M9 7V6C9 4.67392 9.52679 3.40215 10.4645 2.46447C11.4021 1.52678 12.6739 1 14 1C15.3261 1 16.5979 1.52678 17.5355 2.46447C18.4732 3.40215 19 4.67392 19 6V7M11 11V22M17 11V22M5 7H23V25C23 25.5304 22.7893 26.0391 22.4142 26.4142C22.0391 26.7893 21.5304 27 21 27H7C6.46957 27 5.96086 26.7893 5.58579 26.4142C5.21071 26.0391 5 25.5304 5 25V7Z" stroke="currentColor" stroke-width="1.3" stroke-linecap="round" stroke-linejoin="round"/>
</svg>
