<svg width="28" height="29" viewBox="0 0 28 29" fill="none" xmlns="http://www.w3.org/2000/svg">
<path d="M16.668 13.722L14.0013 16.3887M14.0013 16.3887L11.3346 13.722M14.0013 16.3887L14.0013 7.49978" stroke="#A6A6A6" stroke-width="1.5" stroke-linecap="round" stroke-linejoin="round"/>
<path d="M9.55729 10.7227C8.72885 10.7227 8.31463 10.7227 7.9884 10.8578C7.77256 10.9471 7.57645 11.0781 7.41127 11.2433C7.24609 11.4085 7.11508 11.6046 7.02574 11.8204C6.89062 12.1467 6.89062 12.5609 6.89062 13.3893V17.656C6.89062 18.6515 6.89062 19.1493 7.0844 19.5298C7.25484 19.8643 7.5268 20.1362 7.86129 20.3067C8.24085 20.5004 8.73863 20.5004 9.7324 20.5004H18.272C19.2657 20.5004 19.7626 20.5004 20.1422 20.3067C20.4764 20.136 20.7484 19.864 20.9191 19.5298C21.1128 19.1493 21.1128 18.6524 21.1128 17.6587V13.3893C21.1128 12.5609 21.1128 12.1467 20.9777 11.8204C20.8884 11.6046 20.7574 11.4085 20.5922 11.2433C20.427 11.0781 20.2309 10.9471 20.0151 10.8578C19.6888 10.7227 19.2746 10.7227 18.4462 10.7227" stroke="#A6A6A6" stroke-width="1.5" stroke-linecap="round" stroke-linejoin="round"/>
</svg>
