<svg width="36" height="36" viewBox="0 0 36 36" fill="none" xmlns="http://www.w3.org/2000/svg">
<path d="M0 18C0 8.05888 8.05888 0 18 0C27.9411 0 36 8.05888 36 18C36 27.9411 27.9411 36 18 36C8.05888 36 0 27.9411 0 18Z" fill="white" fill-opacity="0.1"/>
<path d="M22.0193 18.1767L15.0533 25.1427H11.5703V21.6597L18.5363 14.6937L21.0345 12.1956L21.0353 12.1947C21.3793 11.8507 21.5517 11.6783 21.7502 11.6139C21.9251 11.5571 22.1135 11.5571 22.2884 11.6139C22.4869 11.6783 22.6584 11.8507 23.0024 12.1938L24.5175 13.7089C24.8623 14.0537 25.0347 14.2261 25.0991 14.4247C25.1559 14.5996 25.1559 14.7879 25.0991 14.9628C25.0347 15.1613 24.8623 15.3337 24.5175 15.6786L22.0193 18.1776L18.5363 14.6946" stroke="white" stroke-width="2" stroke-linecap="round" stroke-linejoin="round"/>
</svg>
