<svg width="19" height="19" viewBox="0 0 19 19" fill="none" xmlns="http://www.w3.org/2000/svg">
<g clip-path="url(#clip0_3548_2126)">
<path d="M5.44101 13.5604C3.98038 12.5233 2.82455 11.1743 2.17142 10.3225C1.98879 10.0873 1.88965 9.79805 1.88965 9.50031C1.88965 9.20258 1.98879 8.91331 2.17142 8.67817C3.35338 7.13521 6.18913 3.95825 9.49988 3.95825C10.985 3.95825 12.3736 4.59713 13.5611 5.44184" stroke="#B3B3B3" stroke-width="1.58" stroke-linecap="round" stroke-linejoin="round"/>
<path d="M11.1861 7.82717C10.9662 7.60365 10.7043 7.42588 10.4154 7.3041C10.1265 7.18232 9.81636 7.11895 9.50284 7.11764C9.18933 7.11632 8.87866 7.1771 8.58875 7.29645C8.29884 7.4158 8.03543 7.59138 7.81371 7.81304C7.592 8.0347 7.41636 8.29807 7.29694 8.58795C7.17752 8.87783 7.11667 9.18849 7.11791 9.50201C7.11915 9.81552 7.18245 10.1257 7.30416 10.4146C7.42587 10.7035 7.60358 10.9655 7.82705 11.1854M3.1665 15.8333L15.8332 3.16663M7.9165 14.8073C8.43046 14.9603 8.9636 15.0392 9.49984 15.0416C12.8106 15.0416 15.6463 11.8647 16.8283 10.3217C17.0109 10.0864 17.1099 9.79691 17.1098 9.49903C17.1096 9.20116 17.0103 8.91181 16.8275 8.67663C16.4121 8.13472 15.9665 7.61668 15.4928 7.12496" stroke="#B3B3B3" stroke-width="1.58" stroke-linecap="round" stroke-linejoin="round"/>
</g>
<defs>
<clipPath id="clip0_3548_2126">
<rect width="19" height="19" fill="white"/>
</clipPath>
</defs>
</svg>
