<svg width="19" height="19" viewBox="0 0 19 19" fill="none" xmlns="http://www.w3.org/2000/svg">
<g clip-path="url(#clip0_15_433)">
<path d="M16.8285 8.67825C17.2037 9.16908 17.2037 9.83171 16.8285 10.3217C15.6465 11.8647 12.8107 15.0417 9.5 15.0417C6.18925 15.0417 3.3535 11.8647 2.17154 10.3217C1.98897 10.0867 1.88986 9.7976 1.88986 9.5C1.88986 9.2024 1.98897 8.91327 2.17154 8.67825C3.3535 7.13529 6.18925 3.95833 9.5 3.95833C12.8107 3.95833 15.6465 7.13529 16.8285 8.67825Z" stroke="#B3B3B3" stroke-width="1.58" stroke-linecap="round" stroke-linejoin="round"/>
<path d="M9.5 11.875C10.8117 11.875 11.875 10.8117 11.875 9.5C11.875 8.18832 10.8117 7.125 9.5 7.125C8.18832 7.125 7.125 8.18832 7.125 9.5C7.125 10.8117 8.18832 11.875 9.5 11.875Z" stroke="#B3B3B3" stroke-width="1.58" stroke-linecap="round" stroke-linejoin="round"/>
</g>
<defs>
<clipPath id="clip0_15_433">
<rect width="19" height="19" fill="white"/>
</clipPath>
</defs>
</svg>
