<svg width="20" height="18" viewBox="0 0 20 18" fill="none" xmlns="http://www.w3.org/2000/svg">
<path d="M1 3V13.8C1 14.92 1 15.48 1.218 15.908C1.40974 16.2843 1.71569 16.5903 2.092 16.782C2.519 17 3.079 17 4.197 17H15.803C16.921 17 17.48 17 17.907 16.782C18.284 16.59 18.59 16.284 18.782 15.908C19 15.48 19 14.92 19 13.8V6.2C19 5.08 19 4.52 18.782 4.092C18.5903 3.71569 18.2843 3.40974 17.908 3.218C17.48 3 16.92 3 15.8 3H10M1 3H10H1ZM1 3C1 2.46957 1.21071 1.96086 1.58579 1.58579C1.96086 1.21071 2.46957 1 3 1H6.675C7.164 1 7.409 1 7.639 1.055C7.843 1.105 8.038 1.185 8.217 1.295C8.419 1.419 8.592 1.592 8.937 1.938L10 3" fill="#F2F2F2"/>
<path d="M1 3V13.8C1 14.92 1 15.48 1.218 15.908C1.40974 16.2843 1.71569 16.5903 2.092 16.782C2.519 17 3.079 17 4.197 17H15.803C16.921 17 17.48 17 17.907 16.782C18.284 16.59 18.59 16.284 18.782 15.908C19 15.48 19 14.92 19 13.8V6.2C19 5.08 19 4.52 18.782 4.092C18.5903 3.71569 18.2843 3.40974 17.908 3.218C17.48 3 16.92 3 15.8 3H10M1 3H10M1 3C1 2.46957 1.21071 1.96086 1.58579 1.58579C1.96086 1.21071 2.46957 1 3 1H6.675C7.164 1 7.409 1 7.639 1.055C7.843 1.105 8.038 1.185 8.217 1.295C8.419 1.419 8.592 1.592 8.937 1.938L10 3" stroke="#9B9B9B" stroke-linecap="round" stroke-linejoin="round"/>
</svg>
