<svg width="18" height="17" viewBox="0 0 18 17" fill="none" xmlns="http://www.w3.org/2000/svg">
<rect x="0.742188" width="17" height="17" rx="8.5" fill="#9B9B9B"/>
<path d="M9.91499 9.84879H11.6015V11.5353M8.56578 7.15038H6.87927V5.46387M11.7425 7.48869C11.5534 7.02058 11.2367 6.61491 10.8285 6.3178C10.4203 6.02069 9.93699 5.84405 9.43341 5.80797C8.92983 5.77188 8.42623 5.8778 7.97985 6.11367C7.53347 6.34954 7.16221 6.70592 6.90828 7.14228M6.73828 9.51047C6.92744 9.9785 7.24409 10.3841 7.65224 10.6811C8.0604 10.9782 8.54369 11.1548 9.04721 11.1909C9.55072 11.2269 10.0543 11.1211 10.5006 10.8852C10.9469 10.6494 11.3182 10.2932 11.5721 9.85688" stroke="white" stroke-width="1.3" stroke-linecap="round" stroke-linejoin="round"/>
</svg>
