<svg width="17" height="18" viewBox="0 0 17 18" fill="none" xmlns="http://www.w3.org/2000/svg">
<path d="M10.3147 6.95469L7.10169 7.35738L6.98694 7.89075L7.61913 8.0055C8.03032 8.10431 8.11213 8.252 8.02288 8.66319L6.98694 13.5262C6.716 14.7832 7.13569 15.375 8.12063 15.375C8.88563 15.375 9.77175 15.0223 10.1744 14.5367L10.2977 13.9534C10.0183 14.1999 9.60707 14.2987 9.33613 14.2987C8.95044 14.2987 8.81125 14.0278 8.909 13.5507L10.3147 6.95469ZM10.4114 4.0275C10.4114 4.39947 10.2636 4.7562 10.0006 5.01922C9.73758 5.28224 9.38084 5.43 9.00888 5.43C8.63691 5.43 8.28018 5.28224 8.01716 5.01922C7.75414 4.7562 7.60638 4.39947 7.60638 4.0275C7.60638 3.65553 7.75414 3.2988 8.01716 3.03578C8.28018 2.77276 8.63691 2.625 9.00888 2.625C9.38084 2.625 9.73758 2.77276 10.0006 3.03578C10.2636 3.2988 10.4114 3.65553 10.4114 4.0275Z" fill="#F63E16"/>
</svg>
