<svg width="15" height="17" viewBox="0 0 15 17" fill="none" xmlns="http://www.w3.org/2000/svg">
<path d="M8.16936 6.125H1.36797C1.25751 6.125 1.16797 6.21454 1.16797 6.325V10.675C1.16797 10.7855 1.25751 10.875 1.36797 10.875H10.3444C10.493 10.875 10.5897 10.7185 10.5232 10.5856L8.34825 6.23556C8.31437 6.1678 8.24512 6.125 8.16936 6.125Z" fill="white"/>
<path d="M8.29297 6.125H1.16797H8.29297ZM8.29297 6.125V2.64167C8.29297 2.19833 8.29297 1.97667 8.20589 1.80725C8.13053 1.65844 8.00997 1.53733 7.86151 1.46129C7.6913 1.375 7.46964 1.375 7.0263 1.375H1.16797V6.125M8.29297 6.125H12.568C13.0113 6.125 13.233 6.125 13.4032 6.21129C13.5518 6.28732 13.6727 6.40842 13.7483 6.55725C13.8346 6.72667 13.8346 6.94833 13.8346 7.39167V9.60833C13.8346 10.0517 13.8346 10.2733 13.7476 10.4428C13.6722 10.5915 13.5516 10.7126 13.4032 10.7887C13.233 10.875 13.0113 10.875 12.5696 10.875H10.668M1.16797 6.125V10.875V6.125ZM1.16797 10.875V15.625H9.40289C9.84543 15.625 10.0679 15.625 10.2365 15.5387C10.3852 15.4628 10.5061 15.3417 10.5817 15.1928C10.668 15.0233 10.668 14.8017 10.668 14.3583V10.875M1.16797 10.875H10.668H1.16797Z" fill="white"/>
<path d="M8.29297 6.125H1.16797M8.29297 6.125V2.64167C8.29297 2.19833 8.29297 1.97667 8.20589 1.80725C8.13053 1.65844 8.00997 1.53733 7.86151 1.46129C7.6913 1.375 7.46964 1.375 7.0263 1.375H1.16797V6.125M8.29297 6.125H12.568C13.0113 6.125 13.233 6.125 13.4032 6.21129C13.5518 6.28732 13.6727 6.40842 13.7483 6.55725C13.8346 6.72667 13.8346 6.94833 13.8346 7.39167V9.60833C13.8346 10.0517 13.8346 10.2733 13.7476 10.4428C13.6722 10.5915 13.5516 10.7126 13.4032 10.7887C13.233 10.875 13.0113 10.875 12.5696 10.875H10.668M1.16797 6.125V10.875M10.668 10.875V14.3583C10.668 14.8017 10.668 15.0233 10.5817 15.1928C10.5061 15.3416 10.3852 15.4628 10.2365 15.5387C10.0679 15.625 9.84543 15.625 9.40289 15.625H1.16797V10.875M10.668 10.875H1.16797" stroke="#B8B8B8" stroke-width="1.5" stroke-linecap="round" stroke-linejoin="round"/>
</svg>
