<svg width="13" height="17" viewBox="0 0 13 17" fill="none" xmlns="http://www.w3.org/2000/svg">
<path d="M4.1237 12.4583H8.8737H4.1237ZM4.1237 10.0833H8.8737H4.1237ZM7.29036 1.375H3.49036C2.6037 1.375 2.16036 1.375 1.82153 1.54758C1.52359 1.69934 1.28137 1.94156 1.12961 2.2395C0.957031 2.57833 0.957031 3.02167 0.957031 3.90833V13.0917C0.957031 13.9783 0.957031 14.4217 1.12961 14.7605C1.28141 15.0584 1.52362 15.3006 1.82153 15.4524C2.15957 15.625 2.60291 15.625 3.48799 15.625H9.50941C10.3945 15.625 10.837 15.625 11.1751 15.4524C11.4735 15.3004 11.7158 15.0582 11.8678 14.7605C12.0404 14.4217 12.0404 13.9799 12.0404 13.0948V6.38308L12.0396 6.125M7.29036 1.375C7.51678 1.37738 7.65928 1.38608 7.79545 1.41854C7.95695 1.45813 8.11211 1.52146 8.25382 1.60854C8.41374 1.70671 8.5507 1.84367 8.82382 2.11758L11.2986 4.59154C11.5725 4.86546 11.7087 5.00163 11.8068 5.16154C11.8939 5.30404 11.9572 5.45763 11.9968 5.61913C12.0285 5.75608 12.0372 5.89937 12.0396 6.125M7.29036 1.375V3.59167C7.29036 4.47833 7.29037 4.92167 7.46295 5.2605C7.61475 5.55841 7.85695 5.80062 8.15486 5.95242C8.49291 6.125 8.93624 6.125 9.82132 6.125H12.0396" fill="white"/>
<path d="M4.1237 12.4583H8.8737M4.1237 10.0833H8.8737M7.29036 1.375H3.49036C2.6037 1.375 2.16036 1.375 1.82153 1.54758C1.52359 1.69934 1.28137 1.94156 1.12961 2.2395C0.957031 2.57833 0.957031 3.02167 0.957031 3.90833V13.0917C0.957031 13.9783 0.957031 14.4217 1.12961 14.7605C1.28141 15.0584 1.52362 15.3006 1.82153 15.4524C2.15957 15.625 2.60291 15.625 3.48799 15.625H9.50941C10.3945 15.625 10.837 15.625 11.1751 15.4524C11.4735 15.3004 11.7158 15.0582 11.8678 14.7605C12.0404 14.4217 12.0404 13.9799 12.0404 13.0948V6.38308L12.0396 6.125M7.29036 1.375C7.51678 1.37738 7.65928 1.38608 7.79545 1.41854C7.95695 1.45813 8.11211 1.52146 8.25382 1.60854C8.41374 1.70671 8.5507 1.84367 8.82382 2.11758L11.2986 4.59154C11.5725 4.86546 11.7087 5.00163 11.8068 5.16154C11.8939 5.30404 11.9572 5.45763 11.9968 5.61913C12.0285 5.75608 12.0372 5.89938 12.0396 6.125M7.29036 1.375V3.59167C7.29036 4.47833 7.29037 4.92167 7.46295 5.2605C7.61475 5.55841 7.85695 5.80062 8.15486 5.95242C8.49291 6.125 8.93624 6.125 9.82132 6.125H12.0396" stroke="#B8B8B8" stroke-width="1.5" stroke-linecap="round" stroke-linejoin="round"/>
</svg>
