<svg width="19" height="19" viewBox="0 0 19 19" fill="none" xmlns="http://www.w3.org/2000/svg">
<rect x="3.75" y="3.75" width="11.5" height="9.5" rx="1.25" fill="white" stroke="#B8B8B8" stroke-width="1.5"/>
<path d="M8 10.0979V6.90212C8 6.50941 8.43198 6.26998 8.765 6.47812L11.3216 8.076C11.6349 8.27183 11.6349 8.72817 11.3216 8.924L8.765 10.5219C8.43198 10.73 8 10.4906 8 10.0979Z" fill="#ADADAD"/>
<path d="M16.5 3H2.5C2.22386 3 2 3.22386 2 3.5C2 3.77614 2.22386 4 2.5 4H16.5C16.7761 4 17 3.77614 17 3.5C17 3.22386 16.7761 3 16.5 3Z" stroke="#B8B8B8"/>
<path d="M9.5 14V16" stroke="#B8B8B8" stroke-width="1.5"/>
<path d="M11 16L8 16" stroke="#B8B8B8" stroke-width="1.5" stroke-linecap="round"/>
</svg>
