<svg width="54" height="54" viewBox="0 0 54 54" fill="none" xmlns="http://www.w3.org/2000/svg">
<path d="M29 21H11M29 21V12.2C29 11.08 29 10.52 28.78 10.092C28.5896 9.71606 28.2851 9.41009 27.91 9.218C27.48 9 26.92 9 25.8 9H11V21M29 21H39.8C40.92 21 41.48 21 41.91 21.218C42.2856 21.4101 42.5908 21.716 42.782 22.092C43 22.52 43 23.08 43 24.2V29.8C43 30.92 43 31.48 42.78 31.908C42.5895 32.2839 42.285 32.5898 41.91 32.782C41.48 33 40.92 33 39.804 33H35M11 21V33M35 33V41.8C35 42.92 35 43.48 34.782 43.908C34.591 44.2842 34.2857 44.5901 33.91 44.782C33.484 45 32.922 45 31.804 45H11V33M35 33H11" stroke="#888888" stroke-linecap="round" stroke-linejoin="round"/>
</svg>
