<svg width="24" height="24" viewBox="0 0 24 24" fill="none" xmlns="http://www.w3.org/2000/svg">
<path d="M13 9H4M13 9V4.6C13 4.04 13 3.76 12.89 3.546C12.7948 3.35803 12.6425 3.20504 12.455 3.109C12.24 3 11.96 3 11.4 3H4V9M13 9H18.4C18.96 9 19.24 9 19.455 9.109C19.6428 9.20504 19.7954 9.358 19.891 9.546C20 9.76 20 10.04 20 10.6V13.4C20 13.96 20 14.24 19.89 14.454C19.7948 14.6419 19.6425 14.7949 19.455 14.891C19.24 15 18.96 15 18.402 15H16M4 9V15M16 15V19.4C16 19.96 16 20.24 15.891 20.454C15.7955 20.6421 15.6429 20.7951 15.455 20.891C15.242 21 14.961 21 14.402 21H4V15M16 15H4" stroke="white" stroke-linecap="round" stroke-linejoin="round"/>
</svg>
