<svg width="115" height="113" viewBox="0 0 115 113" fill="none" xmlns="http://www.w3.org/2000/svg">
<path d="M10.0078 37.6668L16.2018 42.5776C18.3597 44.2884 20.868 45.512 23.5519 46.1632C26.2359 46.8145 29.0308 46.8776 31.7419 46.3482C34.4529 45.8188 37.0149 44.7097 39.2491 43.0981C41.4833 41.4865 43.336 39.4112 44.6781 37.017L57.5078 14.1251L70.3376 37.017C71.68 39.4109 73.533 41.4857 75.7674 43.0968C78.0019 44.7079 80.5639 45.8166 83.2749 46.3455C85.986 46.8745 88.7808 46.8109 91.4645 46.1594C94.1482 45.5078 96.6563 44.2838 98.8138 42.5729L105.008 37.6668L96.6763 78.9589C96.3126 80.7609 95.5386 82.4568 94.4133 83.9174C93.288 85.3779 91.8412 86.5646 90.1831 87.3868C80.0378 92.4153 68.8507 95.0332 57.5078 95.0332C46.1649 95.0332 34.9778 92.4153 24.8326 87.3868C23.1745 86.5646 21.7276 85.3779 20.6024 83.9174C19.4771 82.4568 18.7031 80.7609 18.3393 78.9589L10.0078 37.6668Z" stroke="#F63E16" stroke-width="3.97222" stroke-linecap="round" stroke-linejoin="round"/>
<path d="M38.5078 70.6251C50.8388 76.9013 64.1768 76.9013 76.5078 70.6251" stroke="#F63E16" stroke-width="3.97222" stroke-linecap="round" stroke-linejoin="round"/>
</svg>
