<?xml version="1.0" encoding="utf-8"?>
<!-- Generator: Adobe Illustrator 24.0.3, SVG Export Plug-In . SVG Version: 6.00 Build 0)  -->
<svg version="1.1" xmlns="http://www.w3.org/2000/svg" xmlns:xlink="http://www.w3.org/1999/xlink" x="25px" y="25px"
	 viewBox="11 110 1024 1024" style="enable-background:new 0 0 1024 1024;" xml:space="preserve">
<style type="text/css">
	.st0{fill:#181716;}
	.st1{fill:#8E2982;}
	.st2{fill-rule:evenodd;clip-rule:evenodd;fill:#DF7C2D;}
	.st3{fill-rule:evenodd;clip-rule:evenodd;fill:#E18437;}
	.st4{fill-rule:evenodd;clip-rule:evenodd;fill:#E49C66;}
	.st5{fill-rule:evenodd;clip-rule:evenodd;fill:#E39860;}
	.st6{fill-rule:evenodd;clip-rule:evenodd;fill:#DD722A;}
	.st7{fill-rule:evenodd;clip-rule:evenodd;fill:#FFFFFF;}
	.st8{fill-rule:evenodd;clip-rule:evenodd;fill:#EC7315;}
	.st9{fill-rule:evenodd;clip-rule:evenodd;fill:#8E2982;}
	.st10{fill:#FFFFFF;}
	.st11{fill-rule:evenodd;clip-rule:evenodd;fill:#824880;}
	.st12{fill-rule:evenodd;clip-rule:evenodd;fill:#793A76;}
	.st13{fill-rule:evenodd;clip-rule:evenodd;fill:#743271;}
	.st14{fill-rule:evenodd;clip-rule:evenodd;fill:#6B2268;}
	.st15{fill-rule:evenodd;clip-rule:evenodd;fill:#852D81;}
	.st16{clip-path:url(#SVGID_2_);fill:#FFFFFF;}
</style>
<g id="Layer_1">
	<g>
		<path class="st0" d="M52.86-64.14h-1.91v-14.09L38.83-64.14h-0.41v-18.38h1.84v14.33l12.19-14.33h0.41V-64.14z"/>
		<path class="st0" d="M57.05-77.73h1.75v5.73l6.3-5.73h2.44l-6.9,6.22l7.44,7.37H65.6l-6.25-6.28l-0.55,0.49v5.8h-1.75V-77.73z"/>
		<path class="st0" d="M76.33-78.08c2.09,0,3.83,0.76,5.21,2.27c1.25,1.38,1.88,3.02,1.88,4.91c0,1.9-0.66,3.56-1.98,4.98
			c-1.32,1.42-3.02,2.13-5.1,2.13c-2.09,0-3.79-0.71-5.11-2.13c-1.32-1.42-1.98-3.08-1.98-4.98c0-1.88,0.63-3.52,1.88-4.9
			C72.49-77.32,74.23-78.08,76.33-78.08z M76.32-76.37c-1.45,0-2.7,0.54-3.75,1.61c-1.04,1.08-1.57,2.37-1.57,3.9
			c0,0.98,0.24,1.9,0.71,2.75c0.48,0.85,1.12,1.5,1.93,1.97c0.81,0.46,1.7,0.69,2.67,0.69c0.97,0,1.86-0.23,2.67-0.69
			c0.81-0.46,1.45-1.12,1.93-1.97s0.71-1.77,0.71-2.75c0-1.52-0.52-2.82-1.57-3.9C79.01-75.84,77.77-76.37,76.32-76.37z"/>
		<path class="st0" d="M96.31-70.69H88.4v6.55h-1.75v-13.59h1.75v5.4h7.91v-5.4h1.75v13.59h-1.75V-70.69z"/>
		<path class="st0" d="M101.95-77.73h1.75v5.73l6.3-5.73h2.44l-6.9,6.22l7.44,7.37h-2.47l-6.25-6.28l-0.55,0.49v5.8h-1.75V-77.73z"
			/>
		<path class="st0" d="M128.34-77.73v13.59h-1.72v-2.34c-0.73,0.89-1.56,1.56-2.47,2.01c-0.91,0.45-1.91,0.67-2.99,0.67
			c-1.92,0-3.57-0.7-4.93-2.09c-1.36-1.39-2.04-3.09-2.04-5.09c0-1.96,0.69-3.63,2.06-5.02c1.37-1.39,3.03-2.09,4.96-2.09
			c1.12,0,2.13,0.24,3.03,0.71c0.9,0.48,1.7,1.19,2.38,2.14v-2.5H128.34z M121.35-76.4c-0.97,0-1.87,0.24-2.7,0.72
			s-1.48,1.15-1.97,2.02s-0.73,1.78-0.73,2.75c0,0.96,0.25,1.87,0.74,2.75c0.49,0.87,1.15,1.55,1.98,2.04
			c0.83,0.49,1.72,0.73,2.66,0.73c0.96,0,1.86-0.24,2.72-0.72c0.86-0.48,1.52-1.14,1.98-1.96c0.46-0.82,0.69-1.75,0.69-2.78
			c0-1.57-0.52-2.89-1.55-3.94C124.14-75.87,122.86-76.4,121.35-76.4z"/>
		<path class="st0" d="M152.55-74.91l-1.39,0.86c-1.2-1.59-2.83-2.39-4.9-2.39c-1.66,0-3.03,0.53-4.12,1.6
			c-1.09,1.06-1.64,2.36-1.64,3.88c0,0.99,0.25,1.92,0.75,2.8c0.5,0.87,1.19,1.55,2.07,2.03c0.88,0.48,1.86,0.72,2.95,0.72
			c2,0,3.63-0.8,4.89-2.39l1.39,0.91c-0.65,0.98-1.52,1.74-2.62,2.28c-1.1,0.54-2.34,0.81-3.74,0.81c-2.15,0-3.93-0.68-5.35-2.05
			c-1.42-1.37-2.12-3.03-2.12-4.99c0-1.32,0.33-2.54,0.99-3.67c0.66-1.13,1.57-2.01,2.73-2.64c1.16-0.63,2.45-0.95,3.89-0.95
			c0.9,0,1.77,0.14,2.6,0.41c0.84,0.28,1.55,0.63,2.13,1.08S152.15-75.59,152.55-74.91z"/>
		<path class="st0" d="M170.68-77.73h0.5l4.62,13.59h-1.82l-3.37-10l-5.23,10h-0.33l-5.24-10.01l-3.36,10.01h-1.82l4.65-13.59h0.48
			l5.48,10.64L170.68-77.73z"/>
		<path class="st0" d="M191.95-77.73v13.59h-1.72v-2.34c-0.73,0.89-1.56,1.56-2.47,2.01c-0.91,0.45-1.91,0.67-2.99,0.67
			c-1.92,0-3.57-0.7-4.93-2.09c-1.36-1.39-2.04-3.09-2.04-5.09c0-1.96,0.69-3.63,2.06-5.02c1.37-1.39,3.03-2.09,4.96-2.09
			c1.12,0,2.13,0.24,3.03,0.71c0.9,0.48,1.7,1.19,2.38,2.14v-2.5H191.95z M184.96-76.4c-0.97,0-1.87,0.24-2.7,0.72
			s-1.48,1.15-1.97,2.02s-0.73,1.78-0.73,2.75c0,0.96,0.25,1.87,0.74,2.75c0.49,0.87,1.15,1.55,1.98,2.04
			c0.83,0.49,1.72,0.73,2.66,0.73c0.96,0,1.86-0.24,2.72-0.72c0.86-0.48,1.52-1.14,1.98-1.96c0.46-0.82,0.69-1.75,0.69-2.78
			c0-1.57-0.52-2.89-1.55-3.94C187.74-75.87,186.47-76.4,184.96-76.4z"/>
		<path class="st0" d="M195.91-77.73h1.75v2.5c0.69-0.95,1.49-1.66,2.38-2.14c0.9-0.47,1.9-0.71,3.01-0.71
			c1.93,0,3.58,0.7,4.95,2.09c1.37,1.39,2.06,3.07,2.06,5.02c0,2-0.68,3.7-2.04,5.09c-1.36,1.4-3,2.09-4.92,2.09
			c-1.08,0-2.08-0.22-2.98-0.67c-0.91-0.45-1.73-1.12-2.46-2.01v7.31h-1.75V-77.73z M202.9-76.4c-1.51,0-2.79,0.53-3.82,1.58
			s-1.55,2.37-1.55,3.94c0,1.03,0.23,1.96,0.69,2.78c0.46,0.82,1.12,1.48,1.98,1.96c0.86,0.48,1.77,0.72,2.72,0.72
			c0.94,0,1.82-0.24,2.65-0.73c0.83-0.49,1.49-1.17,1.98-2.04c0.49-0.87,0.74-1.79,0.74-2.75c0-0.96-0.24-1.88-0.73-2.75
			c-0.49-0.87-1.14-1.54-1.96-2.02S203.88-76.4,202.9-76.4z"/>
		<path class="st0" d="M211.81-77.73h8.95v1.51h-3.6v12.08h-1.75v-12.08h-3.6V-77.73z"/>
		<path class="st0" d="M234.15-82.98h1.75v7.3c1.09-1.55,2.66-2.33,4.71-2.33c1.97,0,3.63,0.67,4.97,2.01c1.34,1.34,2,3.06,2,5.16
			c0,2.07-0.67,3.78-2.02,5.11c-1.35,1.33-2.98,2-4.9,2c-2.1,0-3.69-0.82-4.76-2.45v7.01h-1.75v-7.01c-1.06,1.64-2.66,2.46-4.8,2.46
			c-1.88,0-3.5-0.67-4.85-2s-2.03-3.04-2.03-5.12c0-2.1,0.67-3.82,2-5.16s2.99-2.01,4.97-2.01c2.09,0,3.66,0.78,4.71,2.33V-82.98z
			 M224.24-70.93c0,1.52,0.49,2.82,1.47,3.9c0.98,1.08,2.29,1.62,3.92,1.62c0.57,0,1.17-0.14,1.82-0.43
			c0.65-0.29,1.17-0.65,1.57-1.09c0.4-0.44,0.69-0.94,0.89-1.52c0.2-0.58,0.3-1.42,0.3-2.52c0-1.77-0.46-3.12-1.37-4.05
			c-0.92-0.94-2.02-1.41-3.32-1.41c-1.46,0-2.7,0.52-3.73,1.56C224.76-73.82,224.24-72.51,224.24-70.93z M235.85-70.61
			c0,1.62,0.46,2.9,1.38,3.82c0.92,0.92,1.98,1.39,3.18,1.39c1.63,0,2.94-0.54,3.92-1.62s1.47-2.39,1.47-3.91
			c0-1.57-0.52-2.88-1.55-3.92s-2.28-1.56-3.72-1.56c-1.31,0-2.41,0.46-3.32,1.39S235.85-72.63,235.85-70.61z"/>
		<path class="st0" d="M257.25-78.08c2.09,0,3.83,0.76,5.21,2.27c1.25,1.38,1.88,3.02,1.88,4.91c0,1.9-0.66,3.56-1.98,4.98
			c-1.32,1.42-3.02,2.13-5.1,2.13c-2.09,0-3.79-0.71-5.11-2.13c-1.32-1.42-1.98-3.08-1.98-4.98c0-1.88,0.63-3.52,1.88-4.9
			C253.41-77.32,255.15-78.08,257.25-78.08z M257.25-76.37c-1.45,0-2.7,0.54-3.75,1.61c-1.04,1.08-1.57,2.37-1.57,3.9
			c0,0.98,0.24,1.9,0.71,2.75c0.48,0.85,1.12,1.5,1.93,1.97c0.81,0.46,1.7,0.69,2.67,0.69c0.97,0,1.86-0.23,2.67-0.69
			c0.81-0.46,1.45-1.12,1.93-1.97s0.71-1.77,0.71-2.75c0-1.52-0.52-2.82-1.57-3.9C259.94-75.84,258.69-76.37,257.25-76.37z"/>
		<path class="st0" d="M277.23-70.69h-7.91v6.55h-1.75v-13.59h1.75v5.4h7.91v-5.4h1.75v13.59h-1.75V-70.69z"/>
	</g>
	<g>
		<path class="st0" d="M52.86,1433.98h-1.91v-14.09l-12.12,14.09h-0.41v-18.38h1.84v14.33l12.19-14.33h0.41V1433.98z"/>
		<path class="st0" d="M57.05,1420.39h1.75v5.73l6.3-5.73h2.44l-6.9,6.22l7.44,7.37H65.6l-6.25-6.28l-0.55,0.49v5.8h-1.75V1420.39z"
			/>
		<path class="st0" d="M76.33,1420.04c2.09,0,3.83,0.76,5.21,2.27c1.25,1.38,1.88,3.02,1.88,4.91c0,1.9-0.66,3.56-1.98,4.98
			c-1.32,1.42-3.02,2.13-5.1,2.13c-2.09,0-3.79-0.71-5.11-2.13c-1.32-1.42-1.98-3.08-1.98-4.98c0-1.88,0.63-3.52,1.88-4.9
			C72.49,1420.8,74.23,1420.04,76.33,1420.04z M76.32,1421.75c-1.45,0-2.7,0.54-3.75,1.61c-1.04,1.08-1.57,2.37-1.57,3.9
			c0,0.98,0.24,1.9,0.71,2.75c0.48,0.85,1.12,1.5,1.93,1.97c0.81,0.46,1.7,0.69,2.67,0.69c0.97,0,1.86-0.23,2.67-0.69
			c0.81-0.46,1.45-1.12,1.93-1.97s0.71-1.77,0.71-2.75c0-1.52-0.52-2.82-1.57-3.9C79.01,1422.29,77.77,1421.75,76.32,1421.75z"/>
		<path class="st0" d="M96.31,1427.44H88.4v6.55h-1.75v-13.59h1.75v5.4h7.91v-5.4h1.75v13.59h-1.75V1427.44z"/>
		<path class="st0" d="M101.95,1420.39h1.75v5.73l6.3-5.73h2.44l-6.9,6.22l7.44,7.37h-2.47l-6.25-6.28l-0.55,0.49v5.8h-1.75V1420.39
			z"/>
		<path class="st0" d="M128.34,1420.39v13.59h-1.72v-2.34c-0.73,0.89-1.56,1.56-2.47,2.01c-0.91,0.45-1.91,0.67-2.99,0.67
			c-1.92,0-3.57-0.7-4.93-2.09c-1.36-1.39-2.04-3.09-2.04-5.09c0-1.96,0.69-3.63,2.06-5.02c1.37-1.39,3.03-2.09,4.96-2.09
			c1.12,0,2.13,0.24,3.03,0.71c0.9,0.48,1.7,1.19,2.38,2.14v-2.5H128.34z M121.35,1421.73c-0.97,0-1.87,0.24-2.7,0.72
			s-1.48,1.15-1.97,2.02s-0.73,1.78-0.73,2.75c0,0.96,0.25,1.87,0.74,2.75c0.49,0.87,1.15,1.55,1.98,2.04
			c0.83,0.49,1.72,0.73,2.66,0.73c0.96,0,1.86-0.24,2.72-0.72c0.86-0.48,1.52-1.14,1.98-1.96c0.46-0.82,0.69-1.75,0.69-2.78
			c0-1.57-0.52-2.89-1.55-3.94C124.14,1422.26,122.86,1421.73,121.35,1421.73z"/>
		<path class="st0" d="M139.36,1420.39h11.41v13.59h-1.75v-11.94h-7.91v11.94h-1.75V1420.39z"/>
		<path class="st0" d="M153.2,1420.39h1.85l4.67,10.47l4.54-10.47h1.86l-8.11,18.57h-1.85l2.62-6L153.2,1420.39z"/>
		<path class="st0" d="M188.7,1433.98h-20.31v-13.59h1.75v11.94h7.5v-11.94h1.79v11.94h7.5v-11.94h1.79V1433.98z"/>
		<path class="st0" d="M191.45,1426.31h6.87v1.52h-6.87V1426.31z"/>
		<path class="st0" d="M199.62,1420.39h1.85l4.67,10.47l4.54-10.47h1.86l-8.11,18.57h-1.85l2.62-6L199.62,1420.39z"/>
		<path class="st0" d="M218.75,1433.98h-3.95v-13.59h3.89c1.48,0,2.55,0.34,3.21,1.02c0.65,0.68,0.98,1.48,0.98,2.4
			c0,1.38-0.61,2.32-1.82,2.81c1.77,0.63,2.65,1.83,2.65,3.62C223.69,1432.73,222.04,1433.98,218.75,1433.98z M216.55,1421.9v4.24
			h1.14c1.04,0,1.71-0.04,2.03-0.12c0.32-0.08,0.62-0.29,0.9-0.62s0.42-0.76,0.42-1.3c0-0.57-0.15-1.04-0.44-1.42
			c-0.29-0.38-0.6-0.61-0.92-0.67c-0.32-0.07-0.98-0.1-1.99-0.1H216.55z M216.55,1427.75v4.76h1.88c0.89,0,1.52-0.06,1.9-0.17
			c0.38-0.11,0.71-0.36,0.98-0.73s0.41-0.85,0.41-1.42c0-0.74-0.23-1.33-0.7-1.77s-1.09-0.66-1.85-0.66H216.55z"/>
		<path class="st0" d="M238.21,1429.47l1.47,0.78c-0.48,0.95-1.04,1.72-1.68,2.3s-1.35,1.03-2.14,1.33
			c-0.79,0.3-1.69,0.46-2.69,0.46c-2.22,0-3.95-0.73-5.2-2.18c-1.25-1.45-1.88-3.1-1.88-4.93c0-1.72,0.53-3.26,1.59-4.61
			c1.34-1.72,3.14-2.57,5.39-2.57c2.32,0,4.17,0.88,5.55,2.64c0.98,1.24,1.48,2.79,1.5,4.65H227.9c0.03,1.58,0.54,2.87,1.51,3.88
			s2.18,1.51,3.62,1.51c0.69,0,1.37-0.12,2.02-0.36c0.65-0.24,1.21-0.56,1.67-0.96C237.18,1431,237.68,1430.36,238.21,1429.47z
			 M238.21,1425.81c-0.23-0.93-0.57-1.68-1.02-2.24s-1.04-1.01-1.77-1.35c-0.73-0.34-1.51-0.51-2.31-0.51
			c-1.33,0-2.48,0.43-3.44,1.29c-0.7,0.62-1.23,1.56-1.59,2.81H238.21z"/>
		<path class="st0" d="M243.51,1432.5l5.24-12.11h0.91l5.22,12.11h1.63v3.22h-1.69v-1.74h-11.24v1.81h-1.72v-3.3H243.51z
			 M249.18,1423.09l-3.98,9.41h7.79L249.18,1423.09z"/>
		<path class="st0" d="M265.31,1420.04c2.09,0,3.83,0.76,5.21,2.27c1.25,1.38,1.88,3.02,1.88,4.91c0,1.9-0.66,3.56-1.98,4.98
			c-1.32,1.42-3.02,2.13-5.1,2.13c-2.09,0-3.79-0.71-5.11-2.13c-1.32-1.42-1.98-3.08-1.98-4.98c0-1.88,0.63-3.52,1.88-4.9
			C261.47,1420.8,263.21,1420.04,265.31,1420.04z M265.3,1421.75c-1.45,0-2.7,0.54-3.75,1.61c-1.04,1.08-1.57,2.37-1.57,3.9
			c0,0.98,0.24,1.9,0.71,2.75c0.48,0.85,1.12,1.5,1.93,1.97c0.81,0.46,1.7,0.69,2.67,0.69c0.97,0,1.86-0.23,2.67-0.69
			c0.81-0.46,1.45-1.12,1.93-1.97s0.71-1.77,0.71-2.75c0-1.52-0.52-2.82-1.57-3.9C268,1422.29,266.75,1421.75,265.3,1421.75z"/>
		<path class="st0" d="M290.39,1420.39h0.5l4.62,13.59h-1.82l-3.37-10l-5.23,10h-0.33l-5.24-10.01l-3.36,10.01h-1.82l4.65-13.59
			h0.48l5.48,10.64L290.39,1420.39z"/>
		<path class="st0" d="M309.63,1433.98h-1.86l-4.55-9.9l-4.51,9.9h-1.87l6.23-13.59h0.31L309.63,1433.98z"/>
		<path class="st0" d="M323.74,1429.47l1.47,0.78c-0.48,0.95-1.04,1.72-1.68,2.3s-1.35,1.03-2.14,1.33
			c-0.79,0.3-1.69,0.46-2.69,0.46c-2.22,0-3.95-0.73-5.2-2.18c-1.25-1.45-1.88-3.1-1.88-4.93c0-1.72,0.53-3.26,1.59-4.61
			c1.34-1.72,3.14-2.57,5.39-2.57c2.32,0,4.17,0.88,5.55,2.64c0.98,1.24,1.48,2.79,1.5,4.65h-12.23c0.03,1.58,0.54,2.87,1.51,3.88
			s2.18,1.51,3.62,1.51c0.69,0,1.37-0.12,2.02-0.36c0.65-0.24,1.21-0.56,1.67-0.96C322.71,1431,323.21,1430.36,323.74,1429.47z
			 M323.74,1425.81c-0.23-0.93-0.57-1.68-1.02-2.24s-1.04-1.01-1.77-1.35c-0.73-0.34-1.51-0.51-2.31-0.51
			c-1.33,0-2.48,0.43-3.44,1.29c-0.7,0.62-1.23,1.56-1.59,2.81H323.74z"/>
		<path class="st0" d="M338.59,1427.44h-7.91v6.55h-1.75v-13.59h1.75v5.4h7.91v-5.4h1.75v13.59h-1.75V1427.44z"/>
		<path class="st0" d="M345.98,1420.39v10.06l9.98-10.06h0.14v13.59h-1.75v-9.96l-9.91,9.96h-0.21v-13.59H345.98z"/>
		<path class="st0" d="M371.45,1429.47l1.47,0.78c-0.48,0.95-1.04,1.72-1.68,2.3s-1.35,1.03-2.14,1.33
			c-0.79,0.3-1.69,0.46-2.69,0.46c-2.22,0-3.95-0.73-5.2-2.18c-1.25-1.45-1.88-3.1-1.88-4.93c0-1.72,0.53-3.26,1.59-4.61
			c1.34-1.72,3.14-2.57,5.39-2.57c2.32,0,4.17,0.88,5.55,2.64c0.98,1.24,1.48,2.79,1.5,4.65h-12.23c0.03,1.58,0.54,2.87,1.51,3.88
			s2.18,1.51,3.62,1.51c0.69,0,1.37-0.12,2.02-0.36c0.65-0.24,1.21-0.56,1.67-0.96C370.42,1431,370.91,1430.36,371.45,1429.47z
			 M371.45,1425.81c-0.23-0.93-0.57-1.68-1.02-2.24s-1.04-1.01-1.77-1.35c-0.73-0.34-1.51-0.51-2.31-0.51
			c-1.33,0-2.48,0.43-3.44,1.29c-0.7,0.62-1.23,1.56-1.59,2.81H371.45z"/>
	</g>
	<rect x="1403.82" y="0.89" class="st1" width="1024" height="1024"/>
	<path class="st2" d="M1909.34,801.09l-160.83-248.04l-157.36,242.7c10.38,3.51,21.67,5.35,33.54,5.35H1909.34L1909.34,801.09z"/>
	<path class="st3" d="M1591.15,795.75l157.36-242.7l-61.46-94.79l-142.32,219.5c-16.95,26.15-16.95,56.08,0,82.23
		C1555.74,776.97,1571.89,789.24,1591.15,795.75L1591.15,795.75z"/>
	<polygon class="st2" points="1687.05,458.26 1748.51,553.05 1856.9,385.88 1795.44,291.09 1687.05,458.26 	"/>
	<polygon class="st4" points="1856.9,385.88 1748.51,553.05 1909.34,801.09 2126.12,801.09 1856.9,385.88 	"/>
	<path class="st5" d="M1795.44,291.09l61.46,94.79l119.27-183.94c-15.96-11.6-35.97-17.92-58-17.92c-33.9,0-63.02,14.96-79.97,41.11
		L1795.44,291.09L1795.44,291.09z"/>
	<path class="st3" d="M1976.17,201.94L1856.9,385.88l269.22,415.21l122.73-189.29l-250.71-386.67
		C1992.2,215.98,1984.77,208.19,1976.17,201.94L1976.17,201.94z"/>
	<path class="st6" d="M2248.86,611.8l-122.73,189.29h85.53c33.9,0,63.02-14.97,79.97-41.11c16.95-26.15,16.95-56.08,0-82.23
		L2248.86,611.8L2248.86,611.8z"/>
	<g>
		<path class="st7" d="M3377.81,1785.06c45.04,0,92.56,7.1,133.65,24.74l-54.82-84.55c-5.94-9.16-13.37-16.94-21.97-23.2
			c-15.96-11.6-35.97-17.92-58-17.92c-33.9,0-63.02,14.96-79.97,41.11l-42.76,65.95l-14.01,21.61
			C3277.3,1794.68,3324.19,1785.06,3377.81,1785.06z"/>
		<path class="st7" d="M3124.45,2141.92l155.25,1.07c7.55,45.29,45.28,65.77,100.27,65.77c46.36,0,74.39-14.02,74.39-36.66
			c0-17.25-16.17-31.27-50.67-36.66l-105.66-18.32c-90.56-15.09-153.09-65.77-153.09-157.41c0-0.14,0.01-0.28,0.01-0.42
			l-141.72,218.57c-16.95,26.15-16.95,56.08,0,82.23c11.01,16.99,27.16,29.26,46.42,35.77c10.38,3.51,21.67,5.35,33.54,5.35h137.75
			C3166.68,2270.16,3130.38,2218.45,3124.45,2141.92z"/>
		<path class="st7" d="M3750.11,2177.86l-42.76-65.95l-94.49-145.73H3467.3c-3.24-39.89-39.89-58.21-88.41-58.21
			c-45.28,0-65.77,17.25-65.77,37.73c0,17.25,12.94,33.43,53.91,40.97l98.11,16.17c98.11,18.33,162.8,65.77,162.8,158.49
			c0,64.83-31.4,111-81.5,139.87h38.18h85.53c33.9,0,63.02-14.97,79.97-41.11C3767.06,2233.94,3767.06,2204.01,3750.11,2177.86z"/>
	</g>
	<g>
		<path class="st8" d="M1919.32,1785.06c45.04,0,92.56,7.1,133.65,24.74l-54.82-84.55c-5.94-9.16-13.37-16.94-21.97-23.2
			c-15.96-11.6-35.97-17.92-58-17.92c-33.9,0-63.02,14.96-79.97,41.11l-42.76,65.95l-14.01,21.61
			C1818.81,1794.68,1865.69,1785.06,1919.32,1785.06z"/>
		<path class="st8" d="M1665.96,2141.92l155.25,1.07c7.55,45.29,45.28,65.77,100.27,65.77c46.36,0,74.39-14.02,74.39-36.66
			c0-17.25-16.17-31.27-50.67-36.66l-105.66-18.32c-90.56-15.09-153.09-65.77-153.09-157.41c0-0.14,0.01-0.28,0.01-0.42
			l-141.72,218.57c-16.95,26.15-16.95,56.08,0,82.23c11.01,16.99,27.16,29.26,46.42,35.77c10.38,3.51,21.67,5.35,33.54,5.35h137.75
			C1708.19,2270.16,1671.89,2218.45,1665.96,2141.92z"/>
		<path class="st8" d="M2291.62,2177.86l-42.76-65.95l-94.49-145.73h-145.56c-3.24-39.89-39.89-58.21-88.41-58.21
			c-45.28,0-65.77,17.25-65.77,37.73c0,17.25,12.94,33.43,53.91,40.97l98.11,16.17c98.11,18.33,162.8,65.77,162.8,158.49
			c0,64.83-31.4,111-81.5,139.87h38.18h85.53c33.9,0,63.02-14.97,79.97-41.11C2308.57,2233.94,2308.57,2204.01,2291.62,2177.86z"/>
	</g>
	<g>
		<path class="st9" d="M514.33,1785.06c45.04,0,92.56,7.1,133.65,24.74l-54.82-84.55c-5.94-9.16-13.37-16.94-21.97-23.2
			c-15.96-11.6-35.97-17.92-58-17.92c-33.9,0-63.02,14.96-79.97,41.11l-42.76,65.95l-14.01,21.61
			C413.83,1794.68,460.71,1785.06,514.33,1785.06z"/>
		<path class="st9" d="M260.97,2141.92l155.25,1.07c7.55,45.29,45.28,65.77,100.27,65.77c46.36,0,74.39-14.02,74.39-36.66
			c0-17.25-16.17-31.27-50.67-36.66l-105.66-18.32c-90.56-15.09-153.09-65.77-153.09-157.41c0-0.14,0.01-0.28,0.01-0.42
			l-141.72,218.57c-16.95,26.15-16.95,56.08,0,82.23c11.01,16.99,27.16,29.26,46.42,35.77c10.38,3.51,21.67,5.35,33.54,5.35h137.75
			C303.21,2270.16,266.9,2218.45,260.97,2141.92z"/>
		<path class="st9" d="M886.63,2177.86l-42.76-65.95l-94.49-145.73H603.82c-3.24-39.89-39.89-58.21-88.41-58.21
			c-45.28,0-65.77,17.25-65.77,37.73c0,17.25,12.94,33.43,53.91,40.97l98.11,16.17c98.11,18.33,162.8,65.77,162.8,158.49
			c0,64.83-31.4,111-81.5,139.87h38.18h85.53c33.9,0,63.02-14.97,79.97-41.11C903.59,2233.94,903.59,2204.01,886.63,2177.86z"/>
	</g>
	<rect x="-1.17" y="0.89" class="st10" width="1024" height="1024"/>
	<g>
		<path class="st2" d="M504.36,801.09L343.53,553.05l-157.36,242.7c10.38,3.51,21.67,5.35,33.54,5.35H504.36L504.36,801.09z"/>
		<path class="st3" d="M186.17,795.75l157.36-242.7l-61.46-94.79l-142.32,219.5c-16.95,26.15-16.95,56.08,0,82.23
			C150.76,776.97,166.91,789.24,186.17,795.75L186.17,795.75z"/>
		<polygon class="st11" points="282.07,458.26 343.53,553.05 451.92,385.88 390.46,291.09 282.07,458.26 		"/>
		<polygon class="st12" points="451.92,385.88 343.53,553.05 504.36,801.09 721.14,801.09 451.92,385.88 		"/>
		<path class="st13" d="M390.46,291.09l61.46,94.79l119.27-183.94c-15.96-11.6-35.97-17.92-58-17.92
			c-33.9,0-63.02,14.96-79.97,41.11L390.46,291.09L390.46,291.09z"/>
		<path class="st14" d="M571.18,201.94L451.92,385.88l269.22,415.21L843.87,611.8L593.16,225.14
			C587.22,215.98,579.79,208.19,571.18,201.94L571.18,201.94z"/>
		<path class="st15" d="M843.87,611.8L721.14,801.09h85.53c33.9,0,63.02-14.97,79.97-41.11c16.95-26.15,16.95-56.08,0-82.23
			L843.87,611.8L843.87,611.8z"/>
		<path class="st10" d="M416.22,642.89c7.55,45.29,45.28,65.77,100.27,65.77c46.36,0,74.39-14.02,74.39-36.66
			c0-17.25-16.17-31.27-50.67-36.66l-105.66-18.32c-90.56-15.09-153.09-65.77-153.09-157.41c0-109.97,93.8-174.66,232.88-174.66
			c111.05,0,237.19,43.12,244.74,181.12H603.82c-3.24-39.89-39.89-58.21-88.41-58.21c-45.28,0-65.77,17.25-65.77,37.73
			c0,17.25,12.94,33.43,53.91,40.97l98.11,16.17c98.11,18.33,162.8,65.77,162.8,158.49c0,120.75-108.89,176.8-244.74,176.8
			c-136.92,0-247.97-57.14-258.75-196.21L416.22,642.89z"/>
	</g>
</g>
<g id="Layer_2">
	<g>
		<defs>
			<path id="SVGID_1_" d="M2291.14,677.75l-42.76-65.95l-250.71-386.67c-5.94-9.16-13.37-16.94-21.97-23.2
				c-15.96-11.6-35.97-17.92-58-17.92c-33.9,0-63.02,14.96-79.97,41.11l-42.76,65.95l-108.39,167.17l-142.32,219.5
				c-16.95,26.15-16.95,56.08,0,82.23c11.01,16.99,27.16,29.26,46.42,35.77c10.38,3.51,21.67,5.35,33.54,5.35h284.64h216.78h85.53
				c33.9,0,63.02-14.96,79.97-41.11C2308.1,733.83,2308.1,703.9,2291.14,677.75z"/>
		</defs>
		<clipPath id="SVGID_2_">
			<use xlink:href="#SVGID_1_"  style="overflow:visible;"/>
		</clipPath>
		<path class="st16" d="M1821.21,642.89c7.55,45.29,45.28,65.77,100.27,65.77c46.36,0,74.39-14.02,74.39-36.66
			c0-17.25-16.17-31.27-50.67-36.66l-105.66-18.32c-90.56-15.09-153.09-65.77-153.09-157.41c0-109.97,93.8-174.66,232.88-174.66
			c111.05,0,237.19,43.12,244.74,181.12h-155.25c-3.24-39.89-39.89-58.21-88.41-58.21c-45.28,0-65.77,17.25-65.77,37.73
			c0,17.25,12.94,33.43,53.91,40.97l98.11,16.17c98.11,18.33,162.8,65.77,162.8,158.49c0,120.75-108.89,176.8-244.74,176.8
			c-136.92,0-247.97-57.14-258.75-196.21L1821.21,642.89z"/>
	</g>
</g>
</svg>
