<?xml version="1.0" encoding="UTF-8"?>
<!DOCTYPE svg PUBLIC "-//W3C//DTD SVG 1.1//EN" "http://www.w3.org/Graphics/SVG/1.1/DTD/svg11.dtd">
<svg xmlns="http://www.w3.org/2000/svg" version="1.1" width="82px" height="82px" style="shape-rendering:geometricPrecision; text-rendering:geometricPrecision; image-rendering:optimizeQuality; fill-rule:evenodd; clip-rule:evenodd" xmlns:xlink="http://www.w3.org/1999/xlink">
<g><path style="opacity:1" fill="#fdfcfc" d="M -0.5,-0.5 C 26.8333,-0.5 54.1667,-0.5 81.5,-0.5C 81.5,26.8333 81.5,54.1667 81.5,81.5C 54.1667,81.5 26.8333,81.5 -0.5,81.5C -0.5,54.1667 -0.5,26.8333 -0.5,-0.5 Z"/></g>
<g><path style="opacity:1" fill="#71386e" d="M 37.5,14.5 C 44.0566,13.884 48.3899,16.7173 50.5,23C 44.4782,22.3871 38.4782,22.5537 32.5,23.5C 32.261,19.6577 33.9277,16.6577 37.5,14.5 Z"/></g>
<g><path style="opacity:1" fill="#6e1f71" d="M 46.5,34.5 C 47.3382,34.8417 47.6716,35.5084 47.5,36.5C 44.1381,37.8828 40.8047,37.5495 37.5,35.5C 38.3481,34.0089 39.6814,33.3422 41.5,33.5C 43.2073,33.7284 44.874,34.0617 46.5,34.5 Z"/></g>
<g><path style="opacity:1" fill="#72406f" d="M 46.5,34.5 C 44.874,34.0617 43.2073,33.7284 41.5,33.5C 39.6814,33.3422 38.3481,34.0089 37.5,35.5C 40.8047,37.5495 44.1381,37.8828 47.5,36.5C 51.7016,36.1832 55.7016,36.5166 59.5,37.5C 56.8127,37.3359 54.146,37.5026 51.5,38C 50.5842,38.2784 49.9175,38.7784 49.5,39.5C 44.6219,39.8262 40.1219,38.8262 36,36.5C 35.342,34.892 35.842,33.7253 37.5,33C 40.1667,32.3333 42.8333,32.3333 45.5,33C 46.056,33.3826 46.3893,33.8826 46.5,34.5 Z"/></g>
<g><path style="opacity:1" fill="#692666" d="M 59.5,37.5 C 62.2205,40.894 64.5538,44.5606 66.5,48.5C 64.8532,51.4735 62.8532,54.1401 60.5,56.5C 61.5879,47.6608 57.9212,41.9941 49.5,39.5C 49.9175,38.7784 50.5842,38.2784 51.5,38C 54.146,37.5026 56.8127,37.3359 59.5,37.5 Z"/></g>
<g><path style="opacity:1" fill="#df8838" d="M 29.5,47.5 C 29.5,48.5 29.5,49.5 29.5,50.5C 26.5,50.5 23.5,50.5 20.5,50.5C 20.0535,53.0101 20.7202,55.0101 22.5,56.5C 22.933,59.1955 24.2663,61.3621 26.5,63C 22.1667,63.6667 17.8333,63.6667 13.5,63C 11.3234,61.5028 9.99004,59.5028 9.5,57C 12.547,50.609 16.047,44.4423 20,38.5C 20.414,38.0426 20.914,37.7093 21.5,37.5C 22.6622,39.8244 23.8289,42.1578 25,44.5C 26.129,46.1412 27.629,47.1412 29.5,47.5 Z"/></g>
<g><path style="opacity:1" fill="#fdead2" d="M 29.5,50.5 C 30.4916,50.3284 31.1583,50.6618 31.5,51.5C 31.631,52.2389 31.4643,52.9056 31,53.5C 28.2809,52.5562 25.4475,52.2229 22.5,52.5C 22.5,53.8333 22.5,55.1667 22.5,56.5C 20.7202,55.0101 20.0535,53.0101 20.5,50.5C 23.5,50.5 26.5,50.5 29.5,50.5 Z"/></g>
<g><path style="opacity:1" fill="#7f5378" d="M 29.5,47.5 C 33.2877,48.3848 36.9544,49.3848 40.5,50.5C 38.8333,50.5 37.1667,50.5 35.5,50.5C 35.418,53.5849 36.918,55.2515 40,55.5C 43.9037,55.4589 45.0704,53.7923 43.5,50.5C 45.7029,51.0516 46.5362,52.3849 46,54.5C 43.0828,56.3933 39.9162,56.8933 36.5,56C 34.9625,54.2927 33.2959,52.7927 31.5,51.5C 31.1583,50.6618 30.4916,50.3284 29.5,50.5C 29.5,49.5 29.5,48.5 29.5,47.5 Z"/></g>
<g><path style="opacity:1" fill="#783771" d="M 40.5,50.5 C 41.5,50.5 42.5,50.5 43.5,50.5C 45.0704,53.7923 43.9037,55.4589 40,55.5C 36.918,55.2515 35.418,53.5849 35.5,50.5C 37.1667,50.5 38.8333,50.5 40.5,50.5 Z"/></g>
<g><path style="opacity:1" fill="#833581" d="M 66.5,48.5 C 72.5033,52.9918 72.8366,57.8252 67.5,63C 63.5,63.6667 59.5,63.6667 55.5,63C 57.5503,61.0349 59.217,58.8682 60.5,56.5C 62.8532,54.1401 64.8532,51.4735 66.5,48.5 Z"/></g>
</svg>
