<svg width="24" height="24" viewBox="0 0 24 24" fill="none" xmlns="http://www.w3.org/2000/svg">
<path d="M11 5C11 4.44772 11.4477 4 12 4H20C20.5523 4 21 4.44772 21 5C21 5.55228 20.5523 6 20 6H12C11.4477 6 11 5.55228 11 5ZM11 9C11 8.44772 11.4477 8 12 8H16C16.5523 8 17 8.44772 17 9C17 9.55228 16.5523 10 16 10H12C11.4477 10 11 9.55228 11 9ZM11 15C11 14.4477 11.4477 14 12 14H20C20.5523 14 21 14.4477 21 15C21 15.5523 20.5523 16 20 16H12C11.4477 16 11 15.5523 11 15ZM11 19C11 18.4477 11.4477 18 12 18H16C16.5523 18 17 18.4477 17 19C17 19.5523 16.5523 20 16 20H12C11.4477 20 11 19.5523 11 19ZM3 5C3 4.44772 3.44772 4 4 4H8C8.55228 4 9 4.44772 9 5V9C9 9.55228 8.55228 10 8 10H4C3.44772 10 3 9.55228 3 9V5ZM5 6V8H7V6H5ZM3 15C3 14.4477 3.44772 14 4 14H8C8.55228 14 9 14.4477 9 15V19C9 19.5523 8.55228 20 8 20H4C3.44772 20 3 19.5523 3 19V15ZM5 16V18H7V16H5Z" fill="currentColor"/>
</svg>
