<svg width="24" height="24" viewBox="0 0 24 24" fill="none" xmlns="http://www.w3.org/2000/svg">
<path d="M9 11V20M9 11H4.6C4.04 11 3.76 11 3.546 11.109C3.35785 11.2049 3.20487 11.3578 3.109 11.546C3 11.76 3 12.04 3 12.6V20H9M9 11V5.6C9 5.04 9 4.76 9.109 4.546C9.20487 4.35785 9.35785 4.20487 9.546 4.109C9.76 4 10.04 4 10.6 4H13.4C13.96 4 14.24 4 14.454 4.109C14.642 4.205 14.794 4.358 14.891 4.546C15 4.76 15 5.04 15 5.6V8M9 20H15M15 8H19.4C19.96 8 20.24 8 20.455 8.109C20.6425 8.20504 20.7948 8.35803 20.89 8.546C21 8.76 21 9.04 21 9.6V20H15M15 8V20" stroke="currentColor" stroke-width="2" stroke-linecap="round" stroke-linejoin="round"/>
</svg>
