<svg width="24" height="24" viewBox="0 0 24 24" fill="none" xmlns="http://www.w3.org/2000/svg">
<path d="M21.932 15.1547C21.9437 15.2648 21.932 15.3773 21.8922 15.4851L21.8711 15.5461C21.4474 16.7268 20.8147 17.8216 20.0031 18.7781L19.9609 18.8273C19.8626 18.9435 19.7313 19.0271 19.5843 19.0669C19.4374 19.1066 19.2818 19.1007 19.1383 19.05L17.2328 18.3726C16.5338 18.9485 15.7442 19.4047 14.8961 19.7226L14.5281 21.7148C14.5004 21.8647 14.4276 22.0026 14.3196 22.1102C14.2116 22.2178 14.0734 22.29 13.9234 22.3172L13.8602 22.3289C13.2476 22.4396 12.6264 22.4953 12.0039 22.4953H12.0109C12.6367 22.4953 13.2625 22.439 13.8719 22.3289L13.9352 22.3172C14.0852 22.29 14.2234 22.2178 14.3314 22.1102C14.4394 22.0026 14.5121 21.8647 14.5398 21.7148L14.9078 19.725C15.7562 19.4062 16.5391 18.9539 17.2422 18.3773L19.1453 19.0547C19.2888 19.1054 19.4444 19.1113 19.5913 19.0715C19.7383 19.0318 19.8696 18.9482 19.968 18.832L20.0102 18.7828C20.8258 17.8195 21.4516 16.7344 21.8758 15.5554L21.8969 15.4945C21.9344 15.3844 21.9461 15.2672 21.932 15.1547Z" fill="black" fill-opacity="0.15"/>
<path d="M16.125 11.7656C16.125 11.0555 15.9445 10.3852 15.6281 9.80156C14.9297 8.51484 13.568 7.64062 12 7.64062C9.72188 7.64062 7.875 9.4875 7.875 11.7656C7.875 13.3336 8.74922 14.6953 10.0359 15.3937C10.6195 15.7102 11.2875 15.8906 12 15.8906C14.2781 15.8906 16.125 14.0437 16.125 11.7656ZM9.375 11.7656C9.375 11.0648 9.64922 10.4062 10.1437 9.90937C10.6406 9.4125 11.2992 9.14062 12 9.14062C12.7008 9.14062 13.3594 9.4125 13.8563 9.90937C14.1004 10.1528 14.294 10.4422 14.426 10.7607C14.5579 11.0793 14.6255 11.4208 14.625 11.7656C14.625 12.4664 14.3508 13.125 13.8563 13.6219C13.6128 13.866 13.3234 14.0597 13.0049 14.1916C12.6863 14.3235 12.3448 14.3912 12 14.3906C11.2992 14.3906 10.6406 14.1164 10.1437 13.6219C9.89959 13.3784 9.70597 13.0891 9.57404 12.7705C9.44211 12.4519 9.37446 12.1104 9.375 11.7656Z" fill="currentColor"/>
<path d="M13.925 22.3172C14.075 22.29 14.2132 22.2178 14.3212 22.1102C14.4292 22.0026 14.5019 21.8647 14.5297 21.7148L14.8977 19.7226C15.7458 19.4047 16.5353 18.9485 17.2344 18.3726L19.1398 19.05C19.2834 19.1007 19.4389 19.1066 19.5859 19.0669C19.7328 19.0271 19.8642 18.9435 19.9625 18.8273L20.0047 18.7781C20.8203 17.8148 21.4484 16.7273 21.8727 15.5461L21.8938 15.4851C21.9336 15.3773 21.9453 15.2648 21.9336 15.1547C21.9125 14.9695 21.8234 14.7937 21.6758 14.6648L20.1453 13.3547L20.1406 13.3523C20.2133 12.907 20.2508 12.4523 20.2508 11.9976C20.2508 11.6015 20.2227 11.2031 20.1664 10.814C20.1594 10.7625 20.15 10.7109 20.143 10.6594C20.143 10.6547 20.1406 10.6476 20.1406 10.6429L21.6758 9.33044C21.8375 9.19216 21.9313 8.99294 21.9383 8.78669C21.9406 8.69294 21.9266 8.59685 21.8938 8.50544L21.8727 8.44451C21.45 7.26332 20.8172 6.16834 20.0047 5.21248L19.9625 5.16326C19.8639 5.04736 19.7326 4.96405 19.5857 4.92431C19.4389 4.88456 19.2834 4.89024 19.1398 4.9406L17.2344 5.61794C16.5313 5.04138 15.7484 4.58669 14.9 4.26794H14.8977L14.5297 2.27576C14.5273 2.26404 14.525 2.24998 14.5203 2.23826C14.4865 2.09655 14.4122 1.96773 14.3065 1.86745C14.2008 1.76718 14.0683 1.69977 13.925 1.67341L13.8617 1.66169C12.6406 1.44138 11.3563 1.44138 10.1352 1.66169L10.0719 1.67341C9.92187 1.70059 9.78368 1.77277 9.67568 1.88036C9.56767 1.98795 9.49495 2.12586 9.46719 2.27576L9.09688 4.27732C8.25521 4.59614 7.47141 5.05058 6.77657 5.62263L4.85704 4.9406C4.71352 4.88984 4.55795 4.88395 4.41101 4.92372C4.26407 4.9635 4.1327 5.04704 4.03438 5.16326L3.99219 5.21248C3.18066 6.16902 2.54792 7.26381 2.12422 8.44451L2.10313 8.50544C2.05429 8.64166 2.04578 8.78907 2.07862 8.93C2.11146 9.07092 2.18426 9.19939 2.28829 9.29998C2.3 9.30935 2.30938 9.32107 2.3211 9.33044L3.875 10.657V10.6594C3.80235 11.1 3.76719 11.5476 3.76719 11.9953C3.76719 12.4453 3.80235 12.8953 3.875 13.3336L2.3211 14.6601C2.20531 14.7593 2.12243 14.8913 2.0835 15.0387C2.04456 15.186 2.05141 15.3418 2.10313 15.4851L2.12422 15.5461C2.54844 16.7273 3.17657 17.8172 3.99219 18.7781L4.03438 18.8273C4.14922 18.9609 4.30157 19.0476 4.46797 19.0781C4.59454 19.1015 4.72813 19.0945 4.85704 19.05L6.77657 18.3679C6.77891 18.3703 6.7836 18.3726 6.78594 18.375C7.48204 18.9445 8.25782 19.3969 9.09688 19.7133L9.46719 21.7148C9.49495 21.8647 9.56767 22.0026 9.67568 22.1102C9.78368 22.2178 9.92187 22.29 10.0719 22.3172L10.1352 22.3289C10.7469 22.439 11.3727 22.4953 11.9984 22.4953H12.0055C12.6289 22.4953 13.2547 22.439 13.8617 22.3289L13.925 22.3172ZM12.9922 20.7586C12.3302 20.8336 11.6619 20.8336 11 20.7586L10.5805 18.4804L9.69454 18.1406C9.02657 17.8875 8.40547 17.5265 7.85 17.0695L7.11407 16.4625L4.925 17.2406C4.52657 16.7039 4.19375 16.125 3.92657 15.5156L5.6961 14.0039L5.54376 13.0664C5.4875 12.7172 5.45704 12.3562 5.45704 12C5.45704 11.6414 5.48516 11.2828 5.54376 10.9336L5.6961 9.99607L3.92657 8.48435C4.19141 7.87263 4.52657 7.29607 4.925 6.75935L7.11407 7.53748L7.85 6.93044C8.40547 6.47341 9.02657 6.11248 9.69454 5.85935L10.5828 5.52419L11.0023 3.24607C11.6609 3.17107 12.3336 3.17107 12.9945 3.24607L13.4141 5.51951L14.307 5.85466C14.9797 6.10779 15.6055 6.46873 16.1656 6.9281L16.9016 7.53279L19.0766 6.76169C19.475 7.29841 19.8078 7.87732 20.075 8.48669L18.3242 9.98435L18.4766 10.9195C18.5352 11.2734 18.5656 11.6367 18.5656 12C18.5656 12.3633 18.5352 12.7265 18.4766 13.0804L18.3219 14.0203L20.0727 15.5179C19.8072 16.1294 19.4722 16.7082 19.0742 17.2429L16.8992 16.4719L16.1633 17.0765C15.6031 17.5359 14.9797 17.8969 14.3047 18.15L13.4117 18.4851L12.9922 20.7586Z" fill="currentColor"/>
</svg>
