<svg width="24" height="24" viewBox="0 0 24 24" fill="none" xmlns="http://www.w3.org/2000/svg">
<path d="M5 19.5V6.2C5 5.08 5 4.52 5.218 4.092C5.41 3.715 5.715 3.41 6.092 3.218C6.52 3 7.08 3 8.2 3H17.4C17.96 3 18.24 3 18.455 3.109C18.6428 3.20504 18.7954 3.358 18.891 3.546C19 3.76 19 4.04 19 4.6V16.4C19 16.96 19 17.24 18.89 17.454C18.7948 17.6419 18.6425 17.7949 18.455 17.891C18.24 18 17.96 18 17.402 18H7.25C6.65326 18 6.08097 18.2371 5.65901 18.659C5.23705 19.081 5 19.6533 5 20.25C5 20.664 5.336 21 5.75 21H16.402C16.961 21 17.242 21 17.455 20.891C17.6429 20.7951 17.7955 20.6421 17.891 20.454C18 20.24 18 19.96 18 19.4V18" stroke="currentColor" stroke-width="2" stroke-linecap="round" stroke-linejoin="round"/>
</svg>
