<svg width="17" height="17" viewBox="0 0 17 17" fill="none" xmlns="http://www.w3.org/2000/svg">
<rect width="17" height="17" rx="8.5" fill="#FFE143"/>
<path d="M9.1728 9.84976H10.8593V11.5363M7.82359 7.15135H6.13709V5.46484M11.0003 7.48967C10.8112 7.02155 10.4945 6.61589 10.0863 6.31878C9.67815 6.02167 9.1948 5.84503 8.69122 5.80895C8.18764 5.77286 7.68404 5.87877 7.23766 6.11465C6.79128 6.35052 6.42002 6.70689 6.16609 7.14326M5.99609 9.51145C6.18525 9.97948 6.5019 10.3851 6.91006 10.6821C7.31821 10.9791 7.80151 11.1557 8.30502 11.1918C8.80853 11.2279 9.31207 11.122 9.75841 10.8862C10.2048 10.6504 10.576 10.2941 10.83 9.85786" stroke="white" stroke-width="1.3" stroke-linecap="round" stroke-linejoin="round"/>
</svg>
