<svg width="24" height="24" viewBox="0 0 24 24" fill="none" xmlns="http://www.w3.org/2000/svg">
<path d="M4 4.5V19.5V20H20V10.5L19 9H16L14 10V4.5L12.5 3H5.5L4 4.5Z" fill="#F2F2F2"/>
<path d="M2 20H4M4 20H14M4 20V6.2C4 5.08 4 4.52 4.218 4.092C4.41 3.715 4.715 3.41 5.092 3.218C5.52 3 6.08 3 7.2 3H10.8C11.92 3 12.48 3 12.907 3.218C13.284 3.41 13.591 3.715 13.782 4.092C14 4.519 14 5.079 14 6.197V12M14 20H20M14 20V12M14 12C14 11.068 14 10.602 14.152 10.235C14.2524 9.99227 14.3996 9.7717 14.5853 9.58588C14.7709 9.40005 14.9914 9.25262 15.234 9.152C15.602 9 16.068 9 17 9C17.932 9 18.398 9 18.766 9.152C19.0086 9.25262 19.2291 9.40005 19.4147 9.58588C19.6004 9.7717 19.7476 9.99227 19.848 10.235C20 10.602 20 11.068 20 12V20M20 20H22M7 10H11M7 7H11" stroke="#9B9B9B" stroke-linecap="round" stroke-linejoin="round"/>
</svg>
