<svg width="28" height="29" viewBox="0 0 28 29" fill="none" xmlns="http://www.w3.org/2000/svg">
<path d="M10.4987 20.3333H17.4987M15 16.8333H17.4987M15.1654 4H9.56536C8.2587 4 7.60536 4 7.10603 4.25433C6.66696 4.47797 6.31 4.83493 6.08636 5.274C5.83203 5.77333 6 6 5.83203 6M15.1654 4C15.499 4.0035 15.709 4.01633 15.9097 4.06417C16.1477 4.1225 16.3764 4.21583 16.5852 4.34417C16.8209 4.48883 17.0227 4.69067 17.4252 5.09433L21.0722 8.74017C21.4759 9.14383 21.6765 9.3445 21.8212 9.58017C21.9495 9.79017 22.0429 10.0165 22.1012 10.2545C22.1479 10.4563 22.1607 10.6675 22.1642 11M15.1654 4V7.26667C15.1654 8.57333 15.1654 9.22667 15.4197 9.726C15.6434 10.165 16.0003 10.522 16.4394 10.7457C16.9375 11 17.5909 11 18.8952 11H22.1642M22.1642 11L22.1654 11.3803V21.2713C22.1654 22.5757 22.1654 23.2267 21.911 23.726C21.687 24.1647 21.33 24.5217 20.8902 24.7457C20.392 25 19.7399 25 18.4355 25H9.56186C8.25753 25 7.6042 25 7.10603 24.7457C6.66701 24.522 6.31007 24.165 6.08636 23.726C5.83203 23.2267 5.83203 22.5733 5.83203 21.2667V14.5V14" stroke="#9B9B9B" stroke-width="1.3" stroke-linecap="round" stroke-linejoin="round"/>
<path d="M8.66667 12.6667L12 16M5.88889 13.7778C5.37819 13.7778 4.8725 13.6772 4.40068 13.4818C3.92885 13.2863 3.50015 12.9999 3.13903 12.6387C2.77791 12.2776 2.49146 11.8489 2.29602 11.3771C2.10059 10.9053 2 10.3996 2 9.88889C2 9.37819 2.10059 8.8725 2.29602 8.40068C2.49146 7.92885 2.77791 7.50015 3.13903 7.13903C3.50015 6.77791 3.92885 6.49146 4.40068 6.29602C4.8725 6.10059 5.37819 6 5.88889 6C6.92029 6 7.90944 6.40972 8.63875 7.13903C9.36806 7.86834 9.77778 8.85749 9.77778 9.88889C9.77778 10.9203 9.36806 11.9094 8.63875 12.6387C7.90944 13.3681 6.92029 13.7778 5.88889 13.7778Z" stroke="#9B9B9B" stroke-width="1.3" stroke-linecap="round" stroke-linejoin="round"/>
</svg>
